<?xml version="1.0" encoding="UTF-8" standalone="no"?><svg xmlns="http://www.w3.org/2000/svg" xmlns:xlink="http://www.w3.org/1999/xlink" contentScriptType="application/ecmascript" contentStyleType="text/css" height="1392px" preserveAspectRatio="none" style="width:1304px;height:1392px;" version="1.1" viewBox="0 0 1304 1392" width="1304px" zoomAndPan="magnify"><defs><filter height="300%" id="fkhke10ecuvm5" width="300%" x="-1" y="-1"><feGaussianBlur result="blurOut" stdDeviation="2.0"/><feColorMatrix in="blurOut" result="blurOut2" type="matrix" values="0 0 0 0 0 0 0 0 0 0 0 0 0 0 0 0 0 0 .4 0"/><feOffset dx="4.0" dy="4.0" in="blurOut2" result="blurOut3"/><feBlend in="SourceGraphic" in2="blurOut3" mode="normal"/></filter></defs><g><text fill="#000000" font-family="Arial" font-size="18" lengthAdjust="spacingAndGlyphs" textLength="316" x="498" y="19.2419">Diagramme de classes - Client JavaFX</text><!--MD5=[5103e3471bf31fadd75905833dcba617]
class LoginController--><rect fill="#FEFECE" filter="url(#fkhke10ecuvm5)" height="113.3765" id="LoginController" style="stroke: #A80036; stroke-width: 1.5;" width="204" x="671.5" y="49.0158"/><ellipse cx="722.25" cy="65.0158" fill="#ADD1B2" rx="11" ry="11" style="stroke: #A80036; stroke-width: 1.0;"/><path d="M725.2188,70.6565 Q724.6406,70.9533 724,71.094 Q723.3594,71.2502 722.6563,71.2502 Q720.1563,71.2502 718.8281,69.6096 Q717.5156,67.9533 717.5156,64.8283 Q717.5156,61.7033 718.8281,60.0471 Q720.1563,58.3908 722.6563,58.3908 Q723.3594,58.3908 724,58.5471 Q724.6563,58.7033 725.2188,59.0002 L725.2188,61.719 Q724.5938,61.1408 724,60.8752 Q723.4063,60.594 722.7813,60.594 Q721.4375,60.594 720.75,61.6721 Q720.0625,62.7346 720.0625,64.8283 Q720.0625,66.9221 720.75,68.0002 Q721.4375,69.0627 722.7813,69.0627 Q723.4063,69.0627 724,68.7971 Q724.5938,68.5158 725.2188,67.9377 L725.2188,70.6565 Z "/><text fill="#000000" font-family="Arial" font-size="13" lengthAdjust="spacingAndGlyphs" textLength="94" x="742.75" y="70.0599">LoginController</text><line style="stroke: #A80036; stroke-width: 1.5;" x1="672.5" x2="874.5" y1="81.0158" y2="81.0158"/><text fill="#000000" font-family="Arial" font-size="12" lengthAdjust="spacingAndGlyphs" textLength="142" x="677.5" y="97.8439">-champPseudo : TextField</text><text fill="#000000" font-family="Arial" font-size="12" lengthAdjust="spacingAndGlyphs" textLength="148" x="677.5" y="114.1881">-boutonConnexion : Button</text><line style="stroke: #A80036; stroke-width: 1.0;" x1="672.5" x2="874.5" y1="121.7041" y2="121.7041"/><text fill="#000000" font-family="Arial" font-size="12" lengthAdjust="spacingAndGlyphs" textLength="118" x="677.5" y="138.5322">+seConnecter() : void</text><text fill="#000000" font-family="Arial" font-size="12" lengthAdjust="spacingAndGlyphs" textLength="192" x="677.5" y="154.8763">+afficherErreur(msg : String) : void</text><!--MD5=[0278646e5a3f51edb25d463fe8c5bfab]
class MainController--><rect fill="#FEFECE" filter="url(#fkhke10ecuvm5)" height="129.7206" id="MainController" style="stroke: #A80036; stroke-width: 1.5;" width="161" x="911" y="40.5158"/><ellipse cx="943.55" cy="56.5158" fill="#ADD1B2" rx="11" ry="11" style="stroke: #A80036; stroke-width: 1.0;"/><path d="M946.5188,62.1565 Q945.9406,62.4533 945.3,62.594 Q944.6594,62.7502 943.9563,62.7502 Q941.4563,62.7502 940.1281,61.1096 Q938.8156,59.4533 938.8156,56.3283 Q938.8156,53.2033 940.1281,51.5471 Q941.4563,49.8908 943.9563,49.8908 Q944.6594,49.8908 945.3,50.0471 Q945.9563,50.2033 946.5188,50.5002 L946.5188,53.219 Q945.8938,52.6408 945.3,52.3752 Q944.7063,52.094 944.0813,52.094 Q942.7375,52.094 942.05,53.1721 Q941.3625,54.2346 941.3625,56.3283 Q941.3625,58.4221 942.05,59.5002 Q942.7375,60.5627 944.0813,60.5627 Q944.7063,60.5627 945.3,60.2971 Q945.8938,60.0158 946.5188,59.4377 L946.5188,62.1565 Z "/><text fill="#000000" font-family="Arial" font-size="13" lengthAdjust="spacingAndGlyphs" textLength="90" x="961.45" y="61.5599">MainController</text><line style="stroke: #A80036; stroke-width: 1.5;" x1="912" x2="1071" y1="72.5158" y2="72.5158"/><text fill="#000000" font-family="Arial" font-size="12" lengthAdjust="spacingAndGlyphs" textLength="118" x="917" y="89.3439">-listeCartes : ListView</text><text fill="#000000" font-family="Arial" font-size="12" lengthAdjust="spacingAndGlyphs" textLength="145" x="917" y="105.6881">-listeUtilisateurs : ListView</text><text fill="#000000" font-family="Arial" font-size="12" lengthAdjust="spacingAndGlyphs" textLength="120" x="917" y="122.0322">-listeBattles : ListView</text><line style="stroke: #A80036; stroke-width: 1.0;" x1="912" x2="1071" y1="129.5482" y2="129.5482"/><text fill="#000000" font-family="Arial" font-size="12" lengthAdjust="spacingAndGlyphs" textLength="149" x="917" y="146.3763">+rafraichirContexte() : void</text><text fill="#000000" font-family="Arial" font-size="12" lengthAdjust="spacingAndGlyphs" textLength="132" x="917" y="162.7204">+seDeconnecter() : void</text><!--MD5=[2ef17b45f3ed54a2f29843642e45f2d2]
class CardsController--><rect fill="#FEFECE" filter="url(#fkhke10ecuvm5)" height="146.0647" id="CardsController" style="stroke: #A80036; stroke-width: 1.5;" width="186" x="1107.5" y="32.5158"/><ellipse cx="1149.5" cy="48.5158" fill="#ADD1B2" rx="11" ry="11" style="stroke: #A80036; stroke-width: 1.0;"/><path d="M1152.4688,54.1565 Q1151.8906,54.4533 1151.25,54.594 Q1150.6094,54.7502 1149.9063,54.7502 Q1147.4063,54.7502 1146.0781,53.1096 Q1144.7656,51.4533 1144.7656,48.3283 Q1144.7656,45.2033 1146.0781,43.5471 Q1147.4063,41.8908 1149.9063,41.8908 Q1150.6094,41.8908 1151.25,42.0471 Q1151.9063,42.2033 1152.4688,42.5002 L1152.4688,45.219 Q1151.8438,44.6408 1151.25,44.3752 Q1150.6563,44.094 1150.0313,44.094 Q1148.6875,44.094 1148,45.1721 Q1147.3125,46.2346 1147.3125,48.3283 Q1147.3125,50.4221 1148,51.5002 Q1148.6875,52.5627 1150.0313,52.5627 Q1150.6563,52.5627 1151.25,52.2971 Q1151.8438,52.0158 1152.4688,51.4377 L1152.4688,54.1565 Z "/><text fill="#000000" font-family="Arial" font-size="13" lengthAdjust="spacingAndGlyphs" textLength="94" x="1169.5" y="53.5599">CardsController</text><line style="stroke: #A80036; stroke-width: 1.5;" x1="1108.5" x2="1292.5" y1="64.5158" y2="64.5158"/><line style="stroke: #A80036; stroke-width: 1.0;" x1="1108.5" x2="1292.5" y1="72.5158" y2="72.5158"/><text fill="#000000" font-family="Arial" font-size="12" lengthAdjust="spacingAndGlyphs" textLength="108" x="1113.5" y="89.3439">+creerCarte() : void</text><text fill="#000000" font-family="Arial" font-size="12" lengthAdjust="spacingAndGlyphs" textLength="127" x="1113.5" y="105.6881">+recommander() : void</text><text fill="#000000" font-family="Arial" font-size="12" lengthAdjust="spacingAndGlyphs" textLength="95" x="1113.5" y="122.0322">+repudier() : void</text><text fill="#000000" font-family="Arial" font-size="12" lengthAdjust="spacingAndGlyphs" textLength="146" x="1113.5" y="138.3763">+revendiquerCarte() : void</text><text fill="#000000" font-family="Arial" font-size="12" lengthAdjust="spacingAndGlyphs" textLength="143" x="1113.5" y="154.7204">+authentifierCarte() : void</text><text fill="#000000" font-family="Arial" font-size="12" lengthAdjust="spacingAndGlyphs" textLength="174" x="1113.5" y="171.0645">+demanderLegitimation() : void</text><!--MD5=[5ac12e7f6e4a127e9b85cd6621a3be73]
class BattlesController--><rect fill="#FEFECE" filter="url(#fkhke10ecuvm5)" height="113.3765" id="BattlesController" style="stroke: #A80036; stroke-width: 1.5;" width="193" x="162" y="49.0158"/><ellipse cx="204" cy="65.0158" fill="#ADD1B2" rx="11" ry="11" style="stroke: #A80036; stroke-width: 1.0;"/><path d="M206.9688,70.6565 Q206.3906,70.9533 205.75,71.094 Q205.1094,71.2502 204.4063,71.2502 Q201.9063,71.2502 200.5781,69.6096 Q199.2656,67.9533 199.2656,64.8283 Q199.2656,61.7033 200.5781,60.0471 Q201.9063,58.3908 204.4063,58.3908 Q205.1094,58.3908 205.75,58.5471 Q206.4063,58.7033 206.9688,59.0002 L206.9688,61.719 Q206.3438,61.1408 205.75,60.8752 Q205.1563,60.594 204.5313,60.594 Q203.1875,60.594 202.5,61.6721 Q201.8125,62.7346 201.8125,64.8283 Q201.8125,66.9221 202.5,68.0002 Q203.1875,69.0627 204.5313,69.0627 Q205.1563,69.0627 205.75,68.7971 Q206.3438,68.5158 206.9688,67.9377 L206.9688,70.6565 Z "/><text fill="#000000" font-family="Arial" font-size="13" lengthAdjust="spacingAndGlyphs" textLength="101" x="224" y="70.0599">BattlesController</text><line style="stroke: #A80036; stroke-width: 1.5;" x1="163" x2="354" y1="81.0158" y2="81.0158"/><text fill="#000000" font-family="Arial" font-size="12" lengthAdjust="spacingAndGlyphs" textLength="181" x="168" y="97.8439">-barreProgression : ProgressBar</text><line style="stroke: #A80036; stroke-width: 1.0;" x1="163" x2="354" y1="105.36" y2="105.36"/><text fill="#000000" font-family="Arial" font-size="12" lengthAdjust="spacingAndGlyphs" textLength="115" x="168" y="122.1881">+lancerBattle() : void</text><text fill="#000000" font-family="Arial" font-size="12" lengthAdjust="spacingAndGlyphs" textLength="76" x="168" y="138.5322">+voter() : void</text><text fill="#000000" font-family="Arial" font-size="12" lengthAdjust="spacingAndGlyphs" textLength="142" x="168" y="154.8763">+demarrerChrono() : void</text><!--MD5=[15c059d44716eddb1c36cc3cfe9e7e81]
class ProfileController--><rect fill="#FEFECE" filter="url(#fkhke10ecuvm5)" height="80.6882" id="ProfileController" style="stroke: #A80036; stroke-width: 1.5;" width="246" x="390.5" y="65.0158"/><ellipse cx="460.25" cy="81.0158" fill="#ADD1B2" rx="11" ry="11" style="stroke: #A80036; stroke-width: 1.0;"/><path d="M463.2188,86.6565 Q462.6406,86.9533 462,87.094 Q461.3594,87.2502 460.6563,87.2502 Q458.1563,87.2502 456.8281,85.6096 Q455.5156,83.9533 455.5156,80.8283 Q455.5156,77.7033 456.8281,76.0471 Q458.1563,74.3908 460.6563,74.3908 Q461.3594,74.3908 462,74.5471 Q462.6563,74.7033 463.2188,75.0002 L463.2188,77.719 Q462.5938,77.1408 462,76.8752 Q461.4063,76.594 460.7813,76.594 Q459.4375,76.594 458.75,77.6721 Q458.0625,78.7346 458.0625,80.8283 Q458.0625,82.9221 458.75,84.0002 Q459.4375,85.0627 460.7813,85.0627 Q461.4063,85.0627 462,84.7971 Q462.5938,84.5158 463.2188,83.9377 L463.2188,86.6565 Z "/><text fill="#000000" font-family="Arial" font-size="13" lengthAdjust="spacingAndGlyphs" textLength="98" x="480.75" y="86.0599">ProfileController</text><line style="stroke: #A80036; stroke-width: 1.5;" x1="391.5" x2="635.5" y1="97.0158" y2="97.0158"/><line style="stroke: #A80036; stroke-width: 1.0;" x1="391.5" x2="635.5" y1="105.0158" y2="105.0158"/><text fill="#000000" font-family="Arial" font-size="12" lengthAdjust="spacingAndGlyphs" textLength="151" x="396.5" y="121.8439">+afficherMesCartes() : void</text><text fill="#000000" font-family="Arial" font-size="12" lengthAdjust="spacingAndGlyphs" textLength="234" x="396.5" y="138.1881">+afficherRecommandationsRecues() : void</text><!--MD5=[18450c6ab1192520e36bc796a166f73b]
class SceneManager--><rect fill="#FEFECE" filter="url(#fkhke10ecuvm5)" height="64.3441" id="SceneManager" style="stroke: #A80036; stroke-width: 1.5;" width="243" x="758" y="907.0158"/><ellipse cx="830.75" cy="923.0158" fill="#ADD1B2" rx="11" ry="11" style="stroke: #A80036; stroke-width: 1.0;"/><path d="M833.7188,928.6565 Q833.1406,928.9533 832.5,929.094 Q831.8594,929.2502 831.1563,929.2502 Q828.6563,929.2502 827.3281,927.6096 Q826.0156,925.9533 826.0156,922.8283 Q826.0156,919.7033 827.3281,918.0471 Q828.6563,916.3908 831.1563,916.3908 Q831.8594,916.3908 832.5,916.5471 Q833.1563,916.7033 833.7188,917.0002 L833.7188,919.719 Q833.0938,919.1408 832.5,918.8752 Q831.9063,918.594 831.2813,918.594 Q829.9375,918.594 829.25,919.6721 Q828.5625,920.7346 828.5625,922.8283 Q828.5625,924.9221 829.25,926.0002 Q829.9375,927.0627 831.2813,927.0627 Q831.9063,927.0627 832.5,926.7971 Q833.0938,926.5158 833.7188,925.9377 L833.7188,928.6565 Z "/><text fill="#000000" font-family="Arial" font-size="13" lengthAdjust="spacingAndGlyphs" textLength="89" x="851.25" y="928.0599">SceneManager</text><line style="stroke: #A80036; stroke-width: 1.5;" x1="759" x2="1000" y1="939.0158" y2="939.0158"/><line style="stroke: #A80036; stroke-width: 1.0;" x1="759" x2="1000" y1="947.0158" y2="947.0158"/><text fill="#000000" font-family="Arial" font-size="12" lengthAdjust="spacingAndGlyphs" textLength="231" x="764" y="963.8439">+changerScene(nomFichier : String) : void</text><!--MD5=[00b7dba86d3178bdbd955e51313f6f2a]
class ServerConnection--><rect fill="#FEFECE" filter="url(#fkhke10ecuvm5)" height="146.0647" id="ServerConnection" style="stroke: #A80036; stroke-width: 1.5;" width="234" x="541.5" y="362.5158"/><ellipse cx="600.75" cy="378.5158" fill="#ADD1B2" rx="11" ry="11" style="stroke: #A80036; stroke-width: 1.0;"/><path d="M603.7188,384.1565 Q603.1406,384.4533 602.5,384.594 Q601.8594,384.7502 601.1563,384.7502 Q598.6563,384.7502 597.3281,383.1096 Q596.0156,381.4533 596.0156,378.3283 Q596.0156,375.2033 597.3281,373.5471 Q598.6563,371.8908 601.1563,371.8908 Q601.8594,371.8908 602.5,372.0471 Q603.1563,372.2033 603.7188,372.5002 L603.7188,375.219 Q603.0938,374.6408 602.5,374.3752 Q601.9063,374.094 601.2813,374.094 Q599.9375,374.094 599.25,375.1721 Q598.5625,376.2346 598.5625,378.3283 Q598.5625,380.4221 599.25,381.5002 Q599.9375,382.5627 601.2813,382.5627 Q601.9063,382.5627 602.5,382.2971 Q603.0938,382.0158 603.7188,381.4377 L603.7188,384.1565 Z "/><text fill="#000000" font-family="Arial" font-size="13" lengthAdjust="spacingAndGlyphs" textLength="107" x="621.25" y="383.5599">ServerConnection</text><line style="stroke: #A80036; stroke-width: 1.5;" x1="542.5" x2="774.5" y1="394.5158" y2="394.5158"/><text fill="#000000" font-family="Arial" font-size="12" lengthAdjust="spacingAndGlyphs" textLength="86" x="547.5" y="411.3439">-socket : Socket</text><text fill="#000000" font-family="Arial" font-size="12" lengthAdjust="spacingAndGlyphs" textLength="141" x="547.5" y="427.6881">-lecteur : BufferedReader</text><text fill="#000000" font-family="Arial" font-size="12" lengthAdjust="spacingAndGlyphs" textLength="141" x="547.5" y="444.0322">-ecrivain : BufferedWriter</text><line style="stroke: #A80036; stroke-width: 1.0;" x1="542.5" x2="774.5" y1="451.5482" y2="451.5482"/><text fill="#000000" font-family="Arial" font-size="12" lengthAdjust="spacingAndGlyphs" textLength="222" x="547.5" y="468.3763">+connecter(hote : String, port : int) : void</text><text fill="#000000" font-family="Arial" font-size="12" lengthAdjust="spacingAndGlyphs" textLength="178" x="547.5" y="484.7204">+envoyer(requete : String) : void</text><text fill="#000000" font-family="Arial" font-size="12" lengthAdjust="spacingAndGlyphs" textLength="86" x="547.5" y="501.0645">+fermer() : void</text><!--MD5=[324d2f1855016059e7c18301fccea59b]
class MessageReader--><rect fill="#FEFECE" filter="url(#fkhke10ecuvm5)" height="97.0323" id="MessageReader" style="stroke: #A80036; stroke-width: 1.5;" width="144" x="510.5" y="568.5158"/><ellipse cx="533.15" cy="584.5158" fill="#ADD1B2" rx="11" ry="11" style="stroke: #A80036; stroke-width: 1.0;"/><path d="M536.1188,590.1565 Q535.5406,590.4533 534.9,590.594 Q534.2594,590.7502 533.5563,590.7502 Q531.0563,590.7502 529.7281,589.1096 Q528.4156,587.4533 528.4156,584.3283 Q528.4156,581.2033 529.7281,579.5471 Q531.0563,577.8908 533.5563,577.8908 Q534.2594,577.8908 534.9,578.0471 Q535.5563,578.2033 536.1188,578.5002 L536.1188,581.219 Q535.4938,580.6408 534.9,580.3752 Q534.3063,580.094 533.6813,580.094 Q532.3375,580.094 531.65,581.1721 Q530.9625,582.2346 530.9625,584.3283 Q530.9625,586.4221 531.65,587.5002 Q532.3375,588.5627 533.6813,588.5627 Q534.3063,588.5627 534.9,588.2971 Q535.4938,588.0158 536.1188,587.4377 L536.1188,590.1565 Z "/><text fill="#000000" font-family="Arial" font-size="13" lengthAdjust="spacingAndGlyphs" textLength="95" x="548.85" y="589.5599">MessageReader</text><line style="stroke: #A80036; stroke-width: 1.5;" x1="511.5" x2="653.5" y1="600.5158" y2="600.5158"/><text fill="#000000" font-family="Arial" font-size="12" lengthAdjust="spacingAndGlyphs" textLength="132" x="516.5" y="617.3439">-threadLecture : Thread</text><line style="stroke: #A80036; stroke-width: 1.0;" x1="511.5" x2="653.5" y1="624.86" y2="624.86"/><text fill="#000000" font-family="Arial" font-size="12" lengthAdjust="spacingAndGlyphs" textLength="101" x="516.5" y="641.6881">+demarrer() : void</text><text fill="#000000" font-family="Arial" font-size="12" lengthAdjust="spacingAndGlyphs" textLength="87" x="516.5" y="658.0322">+arreter() : void</text><!--MD5=[868862f78876e209a73f96a83d033791]
class RequestService--><rect fill="#FEFECE" filter="url(#fkhke10ecuvm5)" height="64.3441" id="RequestService" style="stroke: #A80036; stroke-width: 1.5;" width="312" x="617.5" y="238.5158"/><ellipse cx="723.75" cy="254.5158" fill="#ADD1B2" rx="11" ry="11" style="stroke: #A80036; stroke-width: 1.0;"/><path d="M726.7188,260.1565 Q726.1406,260.4533 725.5,260.594 Q724.8594,260.7502 724.1563,260.7502 Q721.6563,260.7502 720.3281,259.1096 Q719.0156,257.4533 719.0156,254.3283 Q719.0156,251.2033 720.3281,249.5471 Q721.6563,247.8908 724.1563,247.8908 Q724.8594,247.8908 725.5,248.0471 Q726.1563,248.2033 726.7188,248.5002 L726.7188,251.219 Q726.0938,250.6408 725.5,250.3752 Q724.9063,250.094 724.2813,250.094 Q722.9375,250.094 722.25,251.1721 Q721.5625,252.2346 721.5625,254.3283 Q721.5625,256.4221 722.25,257.5002 Q722.9375,258.5627 724.2813,258.5627 Q724.9063,258.5627 725.5,258.2971 Q726.0938,258.0158 726.7188,257.4377 L726.7188,260.1565 Z "/><text fill="#000000" font-family="Arial" font-size="13" lengthAdjust="spacingAndGlyphs" textLength="91" x="744.25" y="259.5599">RequestService</text><line style="stroke: #A80036; stroke-width: 1.5;" x1="618.5" x2="928.5" y1="270.5158" y2="270.5158"/><line style="stroke: #A80036; stroke-width: 1.0;" x1="618.5" x2="928.5" y1="278.5158" y2="278.5158"/><text fill="#000000" font-family="Arial" font-size="12" lengthAdjust="spacingAndGlyphs" textLength="300" x="623.5" y="295.3439">+envoyerRequete(type : String, donnees : String) : void</text><!--MD5=[c8ff661d8810405741f708d20018b1ce]
class ResponseHandler--><rect fill="#FEFECE" filter="url(#fkhke10ecuvm5)" height="64.3441" id="ResponseHandler" style="stroke: #A80036; stroke-width: 1.5;" width="207" x="312" y="725.5158"/><ellipse cx="358.25" cy="741.5158" fill="#ADD1B2" rx="11" ry="11" style="stroke: #A80036; stroke-width: 1.0;"/><path d="M361.2188,747.1565 Q360.6406,747.4533 360,747.594 Q359.3594,747.7502 358.6563,747.7502 Q356.1563,747.7502 354.8281,746.1096 Q353.5156,744.4533 353.5156,741.3283 Q353.5156,738.2033 354.8281,736.5471 Q356.1563,734.8908 358.6563,734.8908 Q359.3594,734.8908 360,735.0471 Q360.6563,735.2033 361.2188,735.5002 L361.2188,738.219 Q360.5938,737.6408 360,737.3752 Q359.4063,737.094 358.7813,737.094 Q357.4375,737.094 356.75,738.1721 Q356.0625,739.2346 356.0625,741.3283 Q356.0625,743.4221 356.75,744.5002 Q357.4375,745.5627 358.7813,745.5627 Q359.4063,745.5627 360,745.2971 Q360.5938,745.0158 361.2188,744.4377 L361.2188,747.1565 Z "/><text fill="#000000" font-family="Arial" font-size="13" lengthAdjust="spacingAndGlyphs" textLength="106" x="378.75" y="746.5599">ResponseHandler</text><line style="stroke: #A80036; stroke-width: 1.5;" x1="313" x2="518" y1="757.5158" y2="757.5158"/><line style="stroke: #A80036; stroke-width: 1.0;" x1="313" x2="518" y1="765.5158" y2="765.5158"/><text fill="#000000" font-family="Arial" font-size="12" lengthAdjust="spacingAndGlyphs" textLength="195" x="318" y="782.3439">+traiterReponse(json : String) : void</text><!--MD5=[adcbc6e3bcff73cad1ae572eb61a42f4]
class ClientState--><rect fill="#FEFECE" filter="url(#fkhke10ecuvm5)" height="178.7529" id="ClientState" style="stroke: #A80036; stroke-width: 1.5;" width="332" x="249.5" y="849.5158"/><ellipse cx="378.75" cy="865.5158" fill="#ADD1B2" rx="11" ry="11" style="stroke: #A80036; stroke-width: 1.0;"/><path d="M381.7188,871.1565 Q381.1406,871.4533 380.5,871.594 Q379.8594,871.7502 379.1563,871.7502 Q376.6563,871.7502 375.3281,870.1096 Q374.0156,868.4533 374.0156,865.3283 Q374.0156,862.2033 375.3281,860.5471 Q376.6563,858.8908 379.1563,858.8908 Q379.8594,858.8908 380.5,859.0471 Q381.1563,859.2033 381.7188,859.5002 L381.7188,862.219 Q381.0938,861.6408 380.5,861.3752 Q379.9063,861.094 379.2813,861.094 Q377.9375,861.094 377.25,862.1721 Q376.5625,863.2346 376.5625,865.3283 Q376.5625,867.4221 377.25,868.5002 Q377.9375,869.5627 379.2813,869.5627 Q379.9063,869.5627 380.5,869.2971 Q381.0938,869.0158 381.7188,868.4377 L381.7188,871.1565 Z "/><text fill="#000000" font-family="Arial" font-size="13" lengthAdjust="spacingAndGlyphs" textLength="65" x="399.25" y="870.5599">ClientState</text><line style="stroke: #A80036; stroke-width: 1.5;" x1="250.5" x2="580.5" y1="881.5158" y2="881.5158"/><text fill="#000000" font-family="Arial" font-size="12" lengthAdjust="spacingAndGlyphs" textLength="96" x="255.5" y="898.3439">-utilisateur : User</text><text fill="#000000" font-family="Arial" font-size="12" lengthAdjust="spacingAndGlyphs" textLength="108" x="255.5" y="914.6881">-cartes : List&lt;Card&gt;</text><text fill="#000000" font-family="Arial" font-size="12" lengthAdjust="spacingAndGlyphs" textLength="167" x="255.5" y="931.0322">-recommandees : List&lt;String&gt;</text><text fill="#000000" font-family="Arial" font-size="12" lengthAdjust="spacingAndGlyphs" textLength="320" x="255.5" y="947.3763">-recommandationsRecues : List&lt;RecommandationRecue&gt;</text><text fill="#000000" font-family="Arial" font-size="12" lengthAdjust="spacingAndGlyphs" textLength="117" x="255.5" y="963.7204">-battles : List&lt;Battle&gt;</text><text fill="#000000" font-family="Arial" font-size="12" lengthAdjust="spacingAndGlyphs" textLength="135" x="255.5" y="980.0645">-utilisateurs : List&lt;User&gt;</text><line style="stroke: #A80036; stroke-width: 1.0;" x1="250.5" x2="580.5" y1="987.5805" y2="987.5805"/><text fill="#000000" font-family="Arial" font-size="12" lengthAdjust="spacingAndGlyphs" textLength="115" x="255.5" y="1004.4086">+mettreAJour() : void</text><text fill="#000000" font-family="Arial" font-size="12" lengthAdjust="spacingAndGlyphs" textLength="110" x="255.5" y="1020.7527">+reinitialiser() : void</text><!--MD5=[3fd616f346a44cd59a91eb10b19e157c]
class User--><rect fill="#FEFECE" filter="url(#fkhke10ecuvm5)" height="129.7206" id="User" style="stroke: #A80036; stroke-width: 1.5;" width="197" x="6" y="1170.0158"/><ellipse cx="86.25" cy="1186.0158" fill="#ADD1B2" rx="11" ry="11" style="stroke: #A80036; stroke-width: 1.0;"/><path d="M89.2188,1191.6565 Q88.6406,1191.9533 88,1192.094 Q87.3594,1192.2502 86.6563,1192.2502 Q84.1563,1192.2502 82.8281,1190.6096 Q81.5156,1188.9533 81.5156,1185.8283 Q81.5156,1182.7033 82.8281,1181.0471 Q84.1563,1179.3908 86.6563,1179.3908 Q87.3594,1179.3908 88,1179.5471 Q88.6563,1179.7033 89.2188,1180.0002 L89.2188,1182.719 Q88.5938,1182.1408 88,1181.8752 Q87.4063,1181.594 86.7813,1181.594 Q85.4375,1181.594 84.75,1182.6721 Q84.0625,1183.7346 84.0625,1185.8283 Q84.0625,1187.9221 84.75,1189.0002 Q85.4375,1190.0627 86.7813,1190.0627 Q87.4063,1190.0627 88,1189.7971 Q88.5938,1189.5158 89.2188,1188.9377 L89.2188,1191.6565 Z "/><text fill="#000000" font-family="Arial" font-size="13" lengthAdjust="spacingAndGlyphs" textLength="28" x="106.75" y="1191.0599">User</text><line style="stroke: #A80036; stroke-width: 1.5;" x1="7" x2="202" y1="1202.0158" y2="1202.0158"/><text fill="#000000" font-family="Arial" font-size="12" lengthAdjust="spacingAndGlyphs" textLength="56" x="12" y="1218.8439">-id : String</text><text fill="#000000" font-family="Arial" font-size="12" lengthAdjust="spacingAndGlyphs" textLength="87" x="12" y="1235.1881">-pseudo : String</text><text fill="#000000" font-family="Arial" font-size="12" lengthAdjust="spacingAndGlyphs" textLength="123" x="12" y="1251.5322">-estLegitime : boolean</text><text fill="#000000" font-family="Arial" font-size="12" lengthAdjust="spacingAndGlyphs" textLength="94" x="12" y="1267.8763">-estBot : boolean</text><text fill="#000000" font-family="Arial" font-size="12" lengthAdjust="spacingAndGlyphs" textLength="185" x="12" y="1284.2204">-nbRecommandationsValides : int</text><line style="stroke: #A80036; stroke-width: 1.5;" x1="7" x2="202" y1="1291.7364" y2="1291.7364"/><!--MD5=[5e305716458bbdabbd2d7f572ed2bae2]
class Card--><rect fill="#FEFECE" filter="url(#fkhke10ecuvm5)" height="293.1617" id="Card" style="stroke: #A80036; stroke-width: 1.5;" width="171" x="238" y="1088.5158"/><ellipse cx="305.25" cy="1104.5158" fill="#ADD1B2" rx="11" ry="11" style="stroke: #A80036; stroke-width: 1.0;"/><path d="M308.2188,1110.1565 Q307.6406,1110.4533 307,1110.594 Q306.3594,1110.7502 305.6563,1110.7502 Q303.1563,1110.7502 301.8281,1109.1096 Q300.5156,1107.4533 300.5156,1104.3283 Q300.5156,1101.2033 301.8281,1099.5471 Q303.1563,1097.8908 305.6563,1097.8908 Q306.3594,1097.8908 307,1098.0471 Q307.6563,1098.2033 308.2188,1098.5002 L308.2188,1101.219 Q307.5938,1100.6408 307,1100.3752 Q306.4063,1100.094 305.7813,1100.094 Q304.4375,1100.094 303.75,1101.1721 Q303.0625,1102.2346 303.0625,1104.3283 Q303.0625,1106.4221 303.75,1107.5002 Q304.4375,1108.5627 305.7813,1108.5627 Q306.4063,1108.5627 307,1108.2971 Q307.5938,1108.0158 308.2188,1107.4377 L308.2188,1110.1565 Z "/><text fill="#000000" font-family="Arial" font-size="13" lengthAdjust="spacingAndGlyphs" textLength="28" x="325.75" y="1109.5599">Card</text><line style="stroke: #A80036; stroke-width: 1.5;" x1="239" x2="408" y1="1120.5158" y2="1120.5158"/><text fill="#000000" font-family="Arial" font-size="12" lengthAdjust="spacingAndGlyphs" textLength="56" x="244" y="1137.3439">-id : String</text><text fill="#000000" font-family="Arial" font-size="12" lengthAdjust="spacingAndGlyphs" textLength="71" x="244" y="1153.6881">-nom : String</text><text fill="#000000" font-family="Arial" font-size="12" lengthAdjust="spacingAndGlyphs" textLength="152" x="244" y="1170.0322">-createurHistorique : String</text><text fill="#000000" font-family="Arial" font-size="12" lengthAdjust="spacingAndGlyphs" textLength="110" x="244" y="1186.3763">-anneeCreation : int</text><text fill="#000000" font-family="Arial" font-size="12" lengthAdjust="spacingAndGlyphs" textLength="95" x="244" y="1202.7204">-domaine : String</text><text fill="#000000" font-family="Arial" font-size="12" lengthAdjust="spacingAndGlyphs" textLength="108" x="244" y="1219.0645">-description : String</text><text fill="#000000" font-family="Arial" font-size="12" lengthAdjust="spacingAndGlyphs" textLength="124" x="244" y="1235.4086">-proprietaireId : String</text><text fill="#000000" font-family="Arial" font-size="12" lengthAdjust="spacingAndGlyphs" textLength="105" x="244" y="1251.7527">-createurId : String</text><text fill="#000000" font-family="Arial" font-size="12" lengthAdjust="spacingAndGlyphs" textLength="62" x="244" y="1268.0969">-valeur : int</text><text fill="#000000" font-family="Arial" font-size="12" lengthAdjust="spacingAndGlyphs" textLength="78" x="244" y="1284.441">-statut : String</text><text fill="#000000" font-family="Arial" font-size="12" lengthAdjust="spacingAndGlyphs" textLength="143" x="244" y="1300.7851">-estAuthentifiee : boolean</text><text fill="#000000" font-family="Arial" font-size="12" lengthAdjust="spacingAndGlyphs" textLength="132" x="244" y="1317.1292">-authentifieePar : String</text><text fill="#000000" font-family="Arial" font-size="12" lengthAdjust="spacingAndGlyphs" textLength="159" x="244" y="1333.4733">-dateAuthentification : String</text><text fill="#000000" font-family="Arial" font-size="12" lengthAdjust="spacingAndGlyphs" textLength="79" x="244" y="1349.8174">-winCount : int</text><text fill="#000000" font-family="Arial" font-size="12" lengthAdjust="spacingAndGlyphs" textLength="101" x="244" y="1366.1615">-createdAt : String</text><line style="stroke: #A80036; stroke-width: 1.5;" x1="239" x2="408" y1="1373.6776" y2="1373.6776"/><!--MD5=[56044dde1eb5c59443a17cac917b404f]
class Battle--><rect fill="#FEFECE" filter="url(#fkhke10ecuvm5)" height="195.097" id="Battle" style="stroke: #A80036; stroke-width: 1.5;" width="126" x="444.5" y="1137.5158"/><ellipse cx="486.05" cy="1153.5158" fill="#ADD1B2" rx="11" ry="11" style="stroke: #A80036; stroke-width: 1.0;"/><path d="M489.0188,1159.1565 Q488.4406,1159.4533 487.8,1159.594 Q487.1594,1159.7502 486.4563,1159.7502 Q483.9563,1159.7502 482.6281,1158.1096 Q481.3156,1156.4533 481.3156,1153.3283 Q481.3156,1150.2033 482.6281,1148.5471 Q483.9563,1146.8908 486.4563,1146.8908 Q487.1594,1146.8908 487.8,1147.0471 Q488.4563,1147.2033 489.0188,1147.5002 L489.0188,1150.219 Q488.3938,1149.6408 487.8,1149.3752 Q487.2063,1149.094 486.5813,1149.094 Q485.2375,1149.094 484.55,1150.1721 Q483.8625,1151.2346 483.8625,1153.3283 Q483.8625,1155.4221 484.55,1156.5002 Q485.2375,1157.5627 486.5813,1157.5627 Q487.2063,1157.5627 487.8,1157.2971 Q488.3938,1157.0158 489.0188,1156.4377 L489.0188,1159.1565 Z "/><text fill="#000000" font-family="Arial" font-size="13" lengthAdjust="spacingAndGlyphs" textLength="35" x="505.95" y="1158.5599">Battle</text><line style="stroke: #A80036; stroke-width: 1.5;" x1="445.5" x2="569.5" y1="1169.5158" y2="1169.5158"/><text fill="#000000" font-family="Arial" font-size="12" lengthAdjust="spacingAndGlyphs" textLength="56" x="450.5" y="1186.3439">-id : String</text><text fill="#000000" font-family="Arial" font-size="12" lengthAdjust="spacingAndGlyphs" textLength="94" x="450.5" y="1202.6881">-carteAId : String</text><text fill="#000000" font-family="Arial" font-size="12" lengthAdjust="spacingAndGlyphs" textLength="94" x="450.5" y="1219.0322">-carteBId : String</text><text fill="#000000" font-family="Arial" font-size="12" lengthAdjust="spacingAndGlyphs" textLength="95" x="450.5" y="1235.3763">-domaine : String</text><text fill="#000000" font-family="Arial" font-size="12" lengthAdjust="spacingAndGlyphs" textLength="78" x="450.5" y="1251.7204">-statut : String</text><text fill="#000000" font-family="Arial" font-size="12" lengthAdjust="spacingAndGlyphs" textLength="114" x="450.5" y="1268.0645">-dureeSecondes : int</text><text fill="#000000" font-family="Arial" font-size="12" lengthAdjust="spacingAndGlyphs" textLength="65" x="450.5" y="1284.4086">-votesA : int</text><text fill="#000000" font-family="Arial" font-size="12" lengthAdjust="spacingAndGlyphs" textLength="65" x="450.5" y="1300.7527">-votesB : int</text><text fill="#000000" font-family="Arial" font-size="12" lengthAdjust="spacingAndGlyphs" textLength="110" x="450.5" y="1317.0969">-gagnanteId : String</text><line style="stroke: #A80036; stroke-width: 1.5;" x1="445.5" x2="569.5" y1="1324.6129" y2="1324.6129"/><!--MD5=[3d94bceefaa5c7caf9081d182f56b9eb]
class RecommandationRecue--><rect fill="#FEFECE" filter="url(#fkhke10ecuvm5)" height="80.6882" id="RecommandationRecue" style="stroke: #A80036; stroke-width: 1.5;" width="175" x="606" y="1194.5158"/><ellipse cx="621" cy="1210.5158" fill="#ADD1B2" rx="11" ry="11" style="stroke: #A80036; stroke-width: 1.0;"/><path d="M623.9688,1216.1565 Q623.3906,1216.4533 622.75,1216.594 Q622.1094,1216.7502 621.4063,1216.7502 Q618.9063,1216.7502 617.5781,1215.1096 Q616.2656,1213.4533 616.2656,1210.3283 Q616.2656,1207.2033 617.5781,1205.5471 Q618.9063,1203.8908 621.4063,1203.8908 Q622.1094,1203.8908 622.75,1204.0471 Q623.4063,1204.2033 623.9688,1204.5002 L623.9688,1207.219 Q623.3438,1206.6408 622.75,1206.3752 Q622.1563,1206.094 621.5313,1206.094 Q620.1875,1206.094 619.5,1207.1721 Q618.8125,1208.2346 618.8125,1210.3283 Q618.8125,1212.4221 619.5,1213.5002 Q620.1875,1214.5627 621.5313,1214.5627 Q622.1563,1214.5627 622.75,1214.2971 Q623.3438,1214.0158 623.9688,1213.4377 L623.9688,1216.1565 Z "/><text fill="#000000" font-family="Arial" font-size="13" lengthAdjust="spacingAndGlyphs" textLength="143" x="635" y="1215.5599">RecommandationRecue</text><line style="stroke: #A80036; stroke-width: 1.5;" x1="607" x2="780" y1="1226.5158" y2="1226.5158"/><text fill="#000000" font-family="Arial" font-size="12" lengthAdjust="spacingAndGlyphs" textLength="87" x="612" y="1243.3439">-idCarte : String</text><text fill="#000000" font-family="Arial" font-size="12" lengthAdjust="spacingAndGlyphs" textLength="114" x="612" y="1259.6881">-idUtilisateur : String</text><line style="stroke: #A80036; stroke-width: 1.5;" x1="607" x2="780" y1="1267.2041" y2="1267.2041"/><!--MD5=[ff1fef1d5f830c31212d01e346df5a91]
class JsonUtil--><rect fill="#FEFECE" filter="url(#fkhke10ecuvm5)" height="80.6882" id="JsonUtil" style="stroke: #A80036; stroke-width: 1.5;" width="277" x="690" y="576.5158"/><ellipse cx="800.75" cy="592.5158" fill="#ADD1B2" rx="11" ry="11" style="stroke: #A80036; stroke-width: 1.0;"/><path d="M803.7188,598.1565 Q803.1406,598.4533 802.5,598.594 Q801.8594,598.7502 801.1563,598.7502 Q798.6563,598.7502 797.3281,597.1096 Q796.0156,595.4533 796.0156,592.3283 Q796.0156,589.2033 797.3281,587.5471 Q798.6563,585.8908 801.1563,585.8908 Q801.8594,585.8908 802.5,586.0471 Q803.1563,586.2033 803.7188,586.5002 L803.7188,589.219 Q803.0938,588.6408 802.5,588.3752 Q801.9063,588.094 801.2813,588.094 Q799.9375,588.094 799.25,589.1721 Q798.5625,590.2346 798.5625,592.3283 Q798.5625,594.4221 799.25,595.5002 Q799.9375,596.5627 801.2813,596.5627 Q801.9063,596.5627 802.5,596.2971 Q803.0938,596.0158 803.7188,595.4377 L803.7188,598.1565 Z "/><text fill="#000000" font-family="Arial" font-size="13" lengthAdjust="spacingAndGlyphs" textLength="47" x="821.25" y="597.5599">JsonUtil</text><line style="stroke: #A80036; stroke-width: 1.5;" x1="691" x2="966" y1="608.5158" y2="608.5158"/><line style="stroke: #A80036; stroke-width: 1.0;" x1="691" x2="966" y1="616.5158" y2="616.5158"/><text fill="#000000" font-family="Arial" font-size="12" lengthAdjust="spacingAndGlyphs" textLength="177" x="696" y="633.3439">+versJson(objet : Object) : String</text><text fill="#000000" font-family="Arial" font-size="12" lengthAdjust="spacingAndGlyphs" textLength="265" x="696" y="649.6881">+depuisJson(json : String, classe : Class) : Object</text><!--MD5=[ff02542833bc5508509e3d3804a4d51f]
link LoginController to SceneManager--><path d="M807.5,162.2858 C807.5,168.9958 807.5,173.5158 807.5,173.5158 C807.5,173.5158 984,173.5158 984,173.5158 C984,173.5158 984,901.6158 984,901.6158 " fill="none" id="LoginController-&gt;SceneManager" style="stroke: #A80036; stroke-width: 1.0;"/><polygon fill="#A80036" points="984,906.6158,988,897.6158,984,901.6158,980,897.6158,984,906.6158" style="stroke: #A80036; stroke-width: 1.0;"/><!--MD5=[e2851dc7bd51515c72570780e5fbe86c]
link MainController to SceneManager--><path d="M992.5,170.5758 C992.5,170.5758 992.5,901.8658 992.5,901.8658 " fill="none" id="MainController-&gt;SceneManager" style="stroke: #A80036; stroke-width: 1.0;"/><polygon fill="#A80036" points="992.5,906.8658,996.5,897.8658,992.5,901.8658,988.5,897.8658,992.5,906.8658" style="stroke: #A80036; stroke-width: 1.0;"/><!--MD5=[7616d0dd0ea7c61a8c1fcfa3aaeae81c]
link CardsController to SceneManager--><path d="M1200.5,178.7958 C1200.5,382.3058 1200.5,939.5158 1200.5,939.5158 C1200.5,939.5158 1006.31,939.5158 1006.31,939.5158 " fill="none" id="CardsController-&gt;SceneManager" style="stroke: #A80036; stroke-width: 1.0;"/><polygon fill="#A80036" points="1001.31,939.5158,1010.31,943.5158,1006.31,939.5158,1010.31,935.5158,1001.31,939.5158" style="stroke: #A80036; stroke-width: 1.0;"/><!--MD5=[6e3bfe16b09d8d4fda71f36270cdd634]
link BattlesController to SceneManager--><path d="M333.5,162.0858 C333.5,309.7558 333.5,695.5158 333.5,695.5158 C333.5,695.5158 897.33,695.5158 897.33,695.5158 C897.33,695.5158 897.33,901.9358 897.33,901.9358 " fill="none" id="BattlesController-&gt;SceneManager" style="stroke: #A80036; stroke-width: 1.0;"/><polygon fill="#A80036" points="897.33,906.9358,901.33,897.9358,897.33,901.9358,893.33,897.9358,897.33,906.9358" style="stroke: #A80036; stroke-width: 1.0;"/><!--MD5=[961a00effc83279e68ae95ff494f3d29]
link ProfileController to SceneManager--><path d="M631.75,146.2258 C631.75,175.0158 631.75,208.5158 631.75,208.5158 C631.75,208.5158 975.5,208.5158 975.5,208.5158 C975.5,208.5158 975.5,901.6858 975.5,901.6858 " fill="none" id="ProfileController-&gt;SceneManager" style="stroke: #A80036; stroke-width: 1.0;"/><polygon fill="#A80036" points="975.5,906.6858,979.5,897.6858,975.5,901.6858,971.5,897.6858,975.5,906.6858" style="stroke: #A80036; stroke-width: 1.0;"/><!--MD5=[d900ae04f62db6b3c172d476f1a621ab]
link LoginController to RequestService--><path d="M739.5,162.2958 C739.5,162.2958 739.5,233.1858 739.5,233.1858 " fill="none" id="LoginController-&gt;RequestService" style="stroke: #A80036; stroke-width: 1.0;"/><polygon fill="#A80036" points="739.5,238.1858,743.5,229.1858,739.5,233.1858,735.5,229.1858,739.5,238.1858" style="stroke: #A80036; stroke-width: 1.0;"/><!--MD5=[95cb46dfd17a0eba2bccd7589d494a24]
link MainController to RequestService--><path d="M917.17,170.7258 C917.17,170.7258 917.17,233.3658 917.17,233.3658 " fill="none" id="MainController-&gt;RequestService" style="stroke: #A80036; stroke-width: 1.0;"/><polygon fill="#A80036" points="917.17,238.3658,921.17,229.3658,917.17,233.3658,913.17,229.3658,917.17,238.3658" style="stroke: #A80036; stroke-width: 1.0;"/><!--MD5=[28d69700395b602a728895403c208932]
link CardsController to RequestService--><path d="M1107.44,176.5158 C1026.92,176.5158 923.33,176.5158 923.33,176.5158 C923.33,176.5158 923.33,233.4258 923.33,233.4258 " fill="none" id="CardsController-&gt;RequestService" style="stroke: #A80036; stroke-width: 1.0;"/><polygon fill="#A80036" points="923.33,238.4258,927.33,229.4258,923.33,233.4258,919.33,229.4258,923.33,238.4258" style="stroke: #A80036; stroke-width: 1.0;"/><!--MD5=[8ede5b531d68acb7089b627ace41c493]
link BattlesController to RequestService--><path d="M355.02,154.5158 C462.79,154.5158 622.25,154.5158 622.25,154.5158 C622.25,154.5158 622.25,233.5158 622.25,233.5158 " fill="none" id="BattlesController-&gt;RequestService" style="stroke: #A80036; stroke-width: 1.0;"/><polygon fill="#A80036" points="622.25,238.5158,626.25,229.5158,622.25,233.5158,618.25,229.5158,622.25,238.5158" style="stroke: #A80036; stroke-width: 1.0;"/><!--MD5=[f871477c4d5259e3263731447e642026]
link ProfileController to RequestService--><path d="M627,146.3058 C627,146.3058 627,233.4558 627,233.4558 " fill="none" id="ProfileController-&gt;RequestService" style="stroke: #A80036; stroke-width: 1.0;"/><polygon fill="#A80036" points="627,238.4558,631,229.4558,627,233.4558,623,229.4558,627,238.4558" style="stroke: #A80036; stroke-width: 1.0;"/><!--MD5=[ee4e14145b0c1a7f93e7e7376edba1ff]
link RequestService to ServerConnection--><path d="M696.5,302.7258 C696.5,302.7258 696.5,357.4058 696.5,357.4058 " fill="none" id="RequestService-&gt;ServerConnection" style="stroke: #A80036; stroke-width: 1.0;"/><polygon fill="#A80036" points="696.5,362.4058,700.5,353.4058,696.5,357.4058,692.5,353.4058,696.5,362.4058" style="stroke: #A80036; stroke-width: 1.0;"/><!--MD5=[1aabbf88326897522a9fef99b3f8b40e]
link ServerConnection to MessageReader--><path d="M598,508.5558 C598,508.5558 598,563.3058 598,563.3058 " fill="none" id="ServerConnection-&gt;MessageReader" style="stroke: #A80036; stroke-width: 1.0;"/><polygon fill="#A80036" points="598,568.3058,602,559.3058,598,563.3058,594,559.3058,598,568.3058" style="stroke: #A80036; stroke-width: 1.0;"/><!--MD5=[b844ba2e07ec368bbed69eb1d9c96a86]
link MessageReader to ResponseHandler--><path d="M514.75,665.7658 C514.75,665.7658 514.75,720.1658 514.75,720.1658 " fill="none" id="MessageReader-&gt;ResponseHandler" style="stroke: #A80036; stroke-width: 1.0;"/><polygon fill="#A80036" points="514.75,725.1658,518.75,716.1658,514.75,720.1658,510.75,716.1658,514.75,725.1658" style="stroke: #A80036; stroke-width: 1.0;"/><!--MD5=[fc362bc6be328e1197a60cd708b9904b]
link ResponseHandler to ClientState--><path d="M415.5,789.5458 C415.5,789.5458 415.5,844.2458 415.5,844.2458 " fill="none" id="ResponseHandler-&gt;ClientState" style="stroke: #A80036; stroke-width: 1.0;"/><polygon fill="#A80036" points="415.5,849.2458,419.5,840.2458,415.5,844.2458,411.5,840.2458,415.5,849.2458" style="stroke: #A80036; stroke-width: 1.0;"/><!--MD5=[942f75ab131810f21a7017938ea1ed0c]
link ResponseHandler to SceneManager--><path d="M519.24,757.5158 C641.34,757.5158 827.67,757.5158 827.67,757.5158 C827.67,757.5158 827.67,901.9858 827.67,901.9858 " fill="none" id="ResponseHandler-&gt;SceneManager" style="stroke: #A80036; stroke-width: 1.0;"/><polygon fill="#A80036" points="827.67,906.9858,831.67,897.9858,827.67,901.9858,823.67,897.9858,827.67,906.9858" style="stroke: #A80036; stroke-width: 1.0;"/><!--MD5=[b203baf352f1ece53c0c3b0c33925221]
link ServerConnection to JsonUtil--><path d="M732.75,508.5558 C732.75,508.5558 732.75,571.4558 732.75,571.4558 " fill="none" id="ServerConnection-&gt;JsonUtil" style="stroke: #A80036; stroke-width: 1.0;"/><polygon fill="#A80036" points="732.75,576.4558,736.75,567.4558,732.75,571.4558,728.75,567.4558,732.75,576.4558" style="stroke: #A80036; stroke-width: 1.0;"/><!--MD5=[025cea48f5eb3d3a0263c86f61dc5f32]
link RequestService to JsonUtil--><path d="M852.5,302.8058 C852.5,302.8058 852.5,571.4858 852.5,571.4858 " fill="none" id="RequestService-&gt;JsonUtil" style="stroke: #A80036; stroke-width: 1.0;"/><polygon fill="#A80036" points="852.5,576.4858,856.5,567.4858,852.5,571.4858,848.5,567.4858,852.5,576.4858" style="stroke: #A80036; stroke-width: 1.0;"/><!--MD5=[e86ae2bea29b8b5ae8c9b67fdaf13a8c]
reverse link ClientState to Card--><path d="M329.25,1041.6258 C329.25,1041.6258 329.25,1088.2858 329.25,1088.2858 " fill="none" id="ClientState&lt;-Card" style="stroke: #A80036; stroke-width: 1.0;"/><polygon fill="#A80036" points="329.25,1028.6258,325.25,1034.6258,329.25,1040.6258,333.25,1034.6258,329.25,1028.6258" style="stroke: #A80036; stroke-width: 1.0;"/><text fill="#000000" font-family="Arial" font-size="13" lengthAdjust="spacingAndGlyphs" textLength="7" x="315.3785" y="1050.0709">1</text><text fill="#000000" font-family="Arial" font-size="13" lengthAdjust="spacingAndGlyphs" textLength="20" x="309.0176" y="1076.7086">0..*</text><!--MD5=[adbceccaf7bdb95922f86b7f68a01770]
reverse link ClientState to Battle--><path d="M507.5,1041.6258 C507.5,1041.6258 507.5,1137.4558 507.5,1137.4558 " fill="none" id="ClientState&lt;-Battle" style="stroke: #A80036; stroke-width: 1.0;"/><polygon fill="#A80036" points="507.5,1028.6258,503.5,1034.6258,507.5,1040.6258,511.5,1034.6258,507.5,1028.6258" style="stroke: #A80036; stroke-width: 1.0;"/><text fill="#000000" font-family="Arial" font-size="13" lengthAdjust="spacingAndGlyphs" textLength="7" x="507.2758" y="1050.0709">1</text><text fill="#000000" font-family="Arial" font-size="13" lengthAdjust="spacingAndGlyphs" textLength="20" x="486.6719" y="1125.595">0..*</text><!--MD5=[06f4bad67e96e3435ea9390ee2e20453]
reverse link ClientState to User--><path d="M236.27,939.5158 C236.27,939.5158 182.5,939.5158 182.5,939.5158 C182.5,939.5158 182.5,1082.7758 182.5,1169.8058 " fill="none" id="ClientState&lt;-User" style="stroke: #A80036; stroke-width: 1.0;"/><polygon fill="#A80036" points="249.27,939.5158,243.27,935.5158,237.27,939.5158,243.27,943.5158,249.27,939.5158" style="stroke: #A80036; stroke-width: 1.0;"/><text fill="#000000" font-family="Arial" font-size="13" lengthAdjust="spacingAndGlyphs" textLength="7" x="234.5791" y="936.072">1</text><text fill="#000000" font-family="Arial" font-size="13" lengthAdjust="spacingAndGlyphs" textLength="20" x="170.3625" y="1158.2371">0..*</text><!--MD5=[7e4b7a39a754cd97868e2e9c278c749c]
reverse link ClientState to RecommandationRecue--><path d="M576,1041.7758 C576,1041.7758 576,1235.5158 576,1235.5158 C576,1235.5158 588.8,1235.5158 605.95,1235.5158 " fill="none" id="ClientState&lt;-RecommandationRecue" style="stroke: #A80036; stroke-width: 1.0;"/><polygon fill="#A80036" points="576,1028.7758,572,1034.7758,576,1040.7758,580,1034.7758,576,1028.7758" style="stroke: #A80036; stroke-width: 1.0;"/><text fill="#000000" font-family="Arial" font-size="13" lengthAdjust="spacingAndGlyphs" textLength="7" x="581.0203" y="1050.2324">1</text><text fill="#000000" font-family="Arial" font-size="13" lengthAdjust="spacingAndGlyphs" textLength="20" x="577.8716" y="1231.7925">0..*</text><!--MD5=[d66c5823045da20eae06de80fff26ec6]
@startuml DiagrammeClassesClient
skinparam classAttributeIconSize 0
skinparam defaultFontName Arial
skinparam classFontSize 13
skinparam classAttributeFontSize 12
skinparam linetype ortho

title Diagramme de classes - Client JavaFX

class LoginController {
    - champPseudo : TextField
    - boutonConnexion : Button
    - -
    + seConnecter() : void
    + afficherErreur(msg : String) : void
}

class MainController {
    - listeCartes : ListView
    - listeUtilisateurs : ListView
    - listeBattles : ListView
    - -
    + rafraichirContexte() : void
    + seDeconnecter() : void
}

class CardsController {
    - -
    + creerCarte() : void
    + recommander() : void
    + repudier() : void
    + revendiquerCarte() : void
    + authentifierCarte() : void
    + demanderLegitimation() : void
}

class BattlesController {
    - barreProgression : ProgressBar
    - -
    + lancerBattle() : void
    + voter() : void
    + demarrerChrono() : void
}

class ProfileController {
    - -
    + afficherMesCartes() : void
    + afficherRecommandationsRecues() : void
}

class SceneManager {
    - -
    + changerScene(nomFichier : String) : void
}

class ServerConnection {
    - socket : Socket
    - lecteur : BufferedReader
    - ecrivain : BufferedWriter
    - -
    + connecter(hote : String, port : int) : void
    + envoyer(requete : String) : void
    + fermer() : void
}

class MessageReader {
    - threadLecture : Thread
    - -
    + demarrer() : void
    + arreter() : void
}

class RequestService {
    - -
    + envoyerRequete(type : String, donnees : String) : void
}

class ResponseHandler {
    - -
    + traiterReponse(json : String) : void
}

class ClientState {
    - utilisateur : User
    - cartes : List<Card>
    - recommandees : List<String>
    - recommandationsRecues : List<RecommandationRecue>
    - battles : List<Battle>
    - utilisateurs : List<User>
    - -
    + mettreAJour() : void
    + reinitialiser() : void
}

class User {
    - id : String
    - pseudo : String
    - estLegitime : boolean
    - estBot : boolean
    - nbRecommandationsValides : int
}

class Card {
    - id : String
    - nom : String
    - createurHistorique : String
    - anneeCreation : int
    - domaine : String
    - description : String
    - proprietaireId : String
    - createurId : String
    - valeur : int
    - statut : String
    - estAuthentifiee : boolean
    - authentifieePar : String
    - dateAuthentification : String
    - winCount : int
    - createdAt : String
}

class Battle {
    - id : String
    - carteAId : String
    - carteBId : String
    - domaine : String
    - statut : String
    - dureeSecondes : int
    - votesA : int
    - votesB : int
    - gagnanteId : String
}

class RecommandationRecue {
    - idCarte : String
    - idUtilisateur : String
}

class JsonUtil {
    - -
    + versJson(objet : Object) : String
    + depuisJson(json : String, classe : Class) : Object
}

LoginController - -> SceneManager
MainController - -> SceneManager
CardsController - -> SceneManager
BattlesController - -> SceneManager
ProfileController - -> SceneManager

LoginController - -> RequestService
MainController - -> RequestService
CardsController - -> RequestService
BattlesController - -> RequestService
ProfileController - -> RequestService

RequestService - -> ServerConnection
ServerConnection - -> MessageReader
MessageReader - -> ResponseHandler
ResponseHandler - -> ClientState
ResponseHandler - -> SceneManager

ServerConnection - -> JsonUtil
RequestService - -> JsonUtil

ClientState "1" *- - "0..*" Card
ClientState "1" *- - "0..*" Battle
ClientState "1" *- - "0..*" User
ClientState "1" *- - "0..*" RecommandationRecue

@enduml

PlantUML version 1.2020.02(Sun Mar 01 11:22:07 CET 2020)
(GPL source distribution)
Java Runtime: OpenJDK Runtime Environment
JVM: OpenJDK 64-Bit Server VM
Java Version: 21.0.12.1+1-1-24.04.4-Ubuntu
Operating System: Linux
Default Encoding: UTF-8
Language: fr
Country: FR
--></g></svg>